<?xml version="1.0" encoding="UTF-8"?>
<svg id="Layer_1" data-name="Layer 1" xmlns="http://www.w3.org/2000/svg" viewBox="0 0 1329.41 175.45">
  <defs>
    <style>
      .cls-1 {
        font-family: OmniumWide-Bold, 'Omnium Wide';
        font-size: 161.8px;
        font-weight: 700;
      }
    </style>
  </defs>
  <path d="M56.6,45c0-4.47,3.73-8.2,8.2-8.2s8.2,3.73,8.2,8.2v80.78c0,4.47-3.73,8.2-8.2,8.2s-8.2-3.73-8.2-8.2V45Z"/>
  <path d="M172.84,45c0-4.47,3.73-8.2,8.2-8.2s8.2,3.73,8.2,8.2v60.51c0,17.29-12.67,29.21-29.06,29.21s-29.06-11.92-29.06-29.21v-40.69c0-7.6-5.37-12.97-12.67-12.97s-12.67,5.37-12.67,12.97v60.95c0,4.47-3.73,8.2-8.2,8.2s-8.2-3.73-8.2-8.2v-60.51c0-17.29,12.67-29.21,29.06-29.21s29.06,11.92,29.06,29.21v40.69c0,7.6,5.37,12.97,12.67,12.97s12.67-5.37,12.67-12.97v-60.95Z"/>
  <path d="M212.63,132.78c-4.32,0-7.9-3.73-7.9-8.05s3.58-7.75,7.9-7.75h48.88c7.75,0,12.67-5.22,12.67-11.77s-4.92-11.92-12.67-11.92h-30.1c-17.14,0-28.76-12.22-28.76-27.57s11.62-27.72,28.76-27.72h49.03c4.32,0,7.9,3.58,7.9,7.9s-3.58,7.9-7.9,7.9h-48.73c-7.75,0-12.67,5.37-12.67,11.92s4.92,11.77,12.67,11.77h30.7c16.54,0,28.17,12.37,28.17,27.72s-11.62,27.57-28.76,27.57h-49.18Z"/>
  <path d="M336.03,53.79h-30.85c-4.32,0-7.9-3.58-7.9-7.9s3.58-7.9,7.9-7.9h78.09c4.32,0,7.9,3.58,7.9,7.9s-3.58,7.9-7.9,7.9h-30.85v71.98c0,4.47-3.73,8.2-8.2,8.2s-8.2-3.73-8.2-8.2V53.79Z"/>
  <path d="M396.84,48.57c-1.94-4.02-.3-8.94,3.73-11.03,4.02-1.94,9.09-.15,11.03,3.88l35.47,73.77,35.47-73.77c1.94-4.02,7-5.81,11.03-3.87,4.02,2.09,5.66,7,3.73,11.03l-38.6,78.84c-2.24,4.47-6.41,7.3-11.62,7.3s-9.39-2.83-11.62-7.3l-38.6-78.84Z"/>
  <path d="M593.11,45c0-4.47,3.73-8.2,8.2-8.2s8.2,3.73,8.2,8.2v60.51c0,17.29-12.67,29.21-29.06,29.21s-29.06-11.92-29.06-29.21v-40.69c0-7.6-5.37-12.97-12.67-12.97s-12.67,5.37-12.67,12.97v60.95c0,4.47-3.73,8.2-8.2,8.2s-8.2-3.73-8.2-8.2v-60.51c0-17.29,12.67-29.21,29.06-29.21s29.06,11.92,29.06,29.21v40.69c0,7.6,5.37,12.97,12.67,12.97s12.67-5.37,12.67-12.97v-60.95Z"/>
  <path d="M665.25,132.78c-23.55,0-41.58-18.03-41.58-41.58v-11.62c0-23.55,18.03-41.58,41.58-41.58h35.47c4.32,0,7.9,3.58,7.9,7.9s-3.58,7.9-7.9,7.9h-35.32c-14.61,0-25.34,10.88-25.34,25.78v11.62c0,14.9,10.73,25.78,25.34,25.78h35.32c4.32,0,7.9,3.58,7.9,7.9s-3.58,7.9-7.9,7.9h-35.47Z"/>
  <path d="M729.48,132.78c-4.47,0-8.2-3.73-8.2-8.2V46.19c0-4.47,3.73-8.2,8.2-8.2h59.17c4.32,0,7.9,3.58,7.9,7.9s-3.58,7.9-7.9,7.9h-50.97v23.7h46.5c4.32,0,7.9,3.58,7.9,7.9s-3.58,7.9-7.9,7.9h-46.5v23.7h50.97c4.32,0,7.9,3.58,7.9,7.9s-3.58,7.9-7.9,7.9h-59.17Z"/>
  <path d="M799.9,164.37c-4.28,0-7.82-3.58-7.82-7.9s3.54-7.9,7.82-7.9h87.68c4.28,0,7.82,3.58,7.82,7.9s-3.54,7.9-7.82,7.9h-87.68Z"/>
  <path d="M903.85,132.78c-4.47,0-8.2-3.73-8.2-8.2V46.19c0-4.47,3.73-8.2,8.2-8.2h51.42c14.9,0,26.98,11.33,26.98,26.97,0,8.5-3.88,15.95-9.84,20.42,5.96,4.47,9.84,11.92,9.84,20.57,0,15.65-12.07,26.83-26.98,26.83h-51.42ZM927.4,93.28c-4.32,0-7.9-3.58-7.9-7.9s3.58-7.9,7.9-7.9h26.53c7.45,0,11.92-5.37,11.92-11.77s-4.47-11.92-11.92-11.92h-41.88v63.19h41.88c7.45,0,11.92-5.37,11.92-11.77s-4.47-11.92-11.92-11.92h-26.53Z"/>
  <path d="M1005.19,132.78c-4.47,0-8.2-3.73-8.2-8.2V45c0-4.47,3.73-8.2,8.2-8.2s8.2,3.73,8.2,8.2v71.98h47.24c4.32,0,7.9,3.58,7.9,7.9s-3.58,7.9-7.9,7.9h-55.44Z"/>
  <path d="M1111.46,132.78c-23.4,0-41.43-17.59-41.43-40.69v-13.56c0-22.95,18.03-40.54,41.43-40.54h15.5c23.4,0,41.43,17.73,41.43,40.54v13.56c0,23.1-18.03,40.69-41.43,40.69h-15.5ZM1152.29,78.53c0-13.71-11.03-24.74-25.34-24.74h-15.5c-14.31,0-25.34,10.88-25.34,24.74v13.56c0,14.01,11.03,24.89,25.34,24.89h15.5c14.31,0,25.34-10.88,25.34-24.89v-13.56Z"/>
  <path d="M1221.89,132.78c-23.55,0-41.58-18.03-41.58-41.58v-11.62c0-23.55,18.03-41.58,41.58-41.58h42.92c4.32,0,7.9,3.58,7.9,7.9s-3.58,7.9-7.9,7.9h-42.77c-14.61,0-25.34,10.88-25.34,25.78v11.62c0,14.9,10.73,25.78,25.34,25.78h34.13v-23.7h-29.06c-4.32,0-7.9-3.58-7.9-7.9s3.58-7.9,7.9-7.9h36.96c4.47,0,8.2,3.73,8.2,8.2v39.2c0,4.32-3.58,7.9-7.9,7.9h-42.47Z"/>
  <text class="cls-1" transform="translate(1272.78 135.16)"><tspan x="0" y="0">]</tspan></text>
  <text class="cls-1" transform="translate(56.63 132.35) rotate(-180) scale(1 -1)"><tspan x="0" y="0">]</tspan></text>
</svg>